<svg width="900" height="700" xmlns="http://www.w3.org/2000/svg">
  <!-- 对话框背景 -->
  <rect width="900" height="700" fill="#34495E" stroke="#7F8C8D" stroke-width="2" rx="8"/>
  
  <!-- 标题栏 -->
  <rect x="0" y="0" width="900" height="40" fill="#2C3E50" rx="8"/>
  <rect x="0" y="32" width="900" height="8" fill="#2C3E50"/>
  <text x="20" y="26" fill="#ECF0F1" font-family="Arial" font-size="16" font-weight="bold">📁 Select Files to Download - Ubuntu 22.04.3 Desktop</text>
  <rect x="860" y="8" width="24" height="24" fill="#E74C3C" rx="4"/>
  <text x="872" y="24" fill="white" font-family="Arial" font-size="14" text-anchor="middle">✕</text>
  
  <!-- 种子信息面板 -->
  <text x="20" y="70" fill="#ECF0F1" font-family="Arial" font-size="14" font-weight="bold">📊 Torrent Information:</text>
  <rect x="20" y="80" width="860" height="120" fill="#2C3E50" stroke="#7F8C8D" stroke-width="1" rx="4"/>
  
  <g transform="translate(32, 100)" font-family="Arial" font-size="12">
    <text x="0" y="16" fill="#ECF0F1">📝 Name: Ubuntu 22.04.3 Desktop amd64</text>
    <text x="0" y="36" fill="#ECF0F1">📏 Size: 4.7 GB (5,050,875,904 bytes)</text>
    <text x="0" y="56" fill="#ECF0F1">📄 Files: 3 files</text>
    <text x="0" y="76" fill="#ECF0F1">🧩 Pieces: 2,418 pieces (2 MB each)</text>
    <text x="400" y="16" fill="#ECF0F1">👤 Creator: Ubuntu Release Team</text>
    <text x="400" y="36" fill="#ECF0F1">📅 Created: 2023-08-10 14:30:25</text>
    <text x="400" y="56" fill="#ECF0F1">💬 Comment: Official Ubuntu 22.04.3 Desktop ISO</text>
  </g>
  
  <!-- 文件列表 -->
  <text x="20" y="230" fill="#ECF0F1" font-family="Arial" font-size="14" font-weight="bold">📁 File List:</text>
  <rect x="20" y="240" width="860" height="200" fill="#2C3E50" stroke="#7F8C8D" stroke-width="1" rx="4"/>
  
  <!-- 文件列表表头 -->
  <rect x="28" y="248" width="844" height="32" fill="#34495E"/>
  <text x="40" y="268" fill="#ECF0F1" font-family="Arial" font-size="12" font-weight="bold">✓</text>
  <text x="80" y="268" fill="#ECF0F1" font-family="Arial" font-size="12" font-weight="bold">File Name</text>
  <text x="500" y="268" fill="#ECF0F1" font-family="Arial" font-size="12" font-weight="bold">Size</text>
  <text x="600" y="268" fill="#ECF0F1" font-family="Arial" font-size="12" font-weight="bold">Priority</text>
  <text x="720" y="268" fill="#ECF0F1" font-family="Arial" font-size="12" font-weight="bold">Type</text>
  
  <!-- 文件项目1 -->
  <rect x="28" y="280" width="844" height="40" fill="#3498DB" fill-opacity="0.2"/>
  <rect x="36" y="292" width="16" height="16" fill="#27AE60" rx="2"/>
  <text x="44" y="304" fill="white" font-family="Arial" font-size="12" text-anchor="middle">✓</text>
  <text x="80" y="304" fill="#ECF0F1" font-family="Arial" font-size="12">📀 ubuntu-22.04.3-desktop-amd64.iso</text>
  <text x="500" y="304" fill="#ECF0F1" font-family="Arial" font-size="12">4.7 GB</text>
  <rect x="600" y="292" width="60" height="16" fill="#E74C3C" rx="8"/>
  <text x="630" y="304" fill="white" font-family="Arial" font-size="10" text-anchor="middle">🔴 High</text>
  <text x="720" y="304" fill="#ECF0F1" font-family="Arial" font-size="12">ISO</text>
  
  <!-- 文件项目2 -->
  <rect x="28" y="320" width="844" height="40" fill="#34495E"/>
  <rect x="36" y="332" width="16" height="16" fill="#27AE60" rx="2"/>
  <text x="44" y="344" fill="white" font-family="Arial" font-size="12" text-anchor="middle">✓</text>
  <text x="80" y="344" fill="#ECF0F1" font-family="Arial" font-size="12">📄 README.txt</text>
  <text x="500" y="344" fill="#ECF0F1" font-family="Arial" font-size="12">2.1 KB</text>
  <rect x="600" y="332" width="60" height="16" fill="#F39C12" rx="8"/>
  <text x="630" y="344" fill="white" font-family="Arial" font-size="10" text-anchor="middle">🟡 Normal</text>
  <text x="720" y="344" fill="#ECF0F1" font-family="Arial" font-size="12">TXT</text>
  
  <!-- 文件项目3 -->
  <rect x="28" y="360" width="844" height="40" fill="#34495E"/>
  <rect x="36" y="372" width="16" height="16" fill="#7F8C8D" rx="2"/>
  <text x="80" y="384" fill="#ECF0F1" font-family="Arial" font-size="12">📄 CHECKSUM.md5</text>
  <text x="500" y="384" fill="#ECF0F1" font-family="Arial" font-size="12">156 B</text>
  <rect x="600" y="372" width="60" height="16" fill="#3498DB" rx="8"/>
  <text x="630" y="384" fill="white" font-family="Arial" font-size="10" text-anchor="middle">🔵 Low</text>
  <text x="720" y="384" fill="#ECF0F1" font-family="Arial" font-size="12">MD5</text>
  
  <!-- 保存设置 -->
  <text x="20" y="470" fill="#ECF0F1" font-family="Arial" font-size="14" font-weight="bold">💾 Save Location:</text>
  <rect x="20" y="480" width="700" height="32" fill="#2C3E50" stroke="#7F8C8D" stroke-width="1" rx="4"/>
  <text x="28" y="500" fill="#BDC3C7" font-family="Arial" font-size="12">/home/user/Downloads/Ubuntu/</text>
  <rect x="730" y="484" width="80" height="24" fill="#3498DB" rx="4"/>
  <text x="770" y="498" fill="white" font-family="Arial" font-size="11" text-anchor="middle">📁 Browse</text>
  
  <!-- 下载选项 -->
  <text x="20" y="540" fill="#ECF0F1" font-family="Arial" font-size="14" font-weight="bold">⚙️ Download Options:</text>
  
  <!-- 连接设置 -->
  <rect x="20" y="550" width="180" height="80" fill="#2C3E50" stroke="#7F8C8D" stroke-width="1" rx="4"/>
  <text x="28" y="570" fill="#3498DB" font-family="Arial" font-size="12" font-weight="bold">🔗 Connection</text>
  <text x="28" y="590" fill="#ECF0F1" font-family="Arial" font-size="11">Max Peers: 50</text>
  <text x="28" y="605" fill="#ECF0F1" font-family="Arial" font-size="11">Per Peer: 4</text>
  <text x="28" y="620" fill="#ECF0F1" font-family="Arial" font-size="11">Timeout: 30s</text>
  
  <!-- 速度限制 -->
  <rect x="210" y="550" width="180" height="80" fill="#2C3E50" stroke="#7F8C8D" stroke-width="1" rx="4"/>
  <text x="218" y="570" fill="#F39C12" font-family="Arial" font-size="12" font-weight="bold">⚡ Speed Limits</text>
  <text x="218" y="590" fill="#ECF0F1" font-family="Arial" font-size="11">Download: Unlimited</text>
  <text x="218" y="605" fill="#ECF0F1" font-family="Arial" font-size="11">Upload: 1MB/s</text>
  <text x="218" y="620" fill="#ECF0F1" font-family="Arial" font-size="11">Queue: Auto</text>
  
  <!-- 任务优先级 -->
  <rect x="400" y="550" width="180" height="80" fill="#2C3E50" stroke="#7F8C8D" stroke-width="1" rx="4"/>
  <text x="408" y="570" fill="#E74C3C" font-family="Arial" font-size="12" font-weight="bold">🎯 Task Priority</text>
  <g transform="translate(408, 580)">
    <circle cx="8" cy="8" r="6" fill="none" stroke="#7F8C8D" stroke-width="2"/>
    <text x="20" y="12" fill="#ECF0F1" font-family="Arial" font-size="11">High Priority</text>
    <circle cx="8" cy="24" r="6" fill="#3498DB" stroke="#3498DB" stroke-width="2"/>
    <text x="20" y="28" fill="#ECF0F1" font-family="Arial" font-size="11">Normal Priority</text>
    <circle cx="8" cy="40" r="6" fill="none" stroke="#7F8C8D" stroke-width="2"/>
    <text x="20" y="44" fill="#ECF0F1" font-family="Arial" font-size="11">Low Priority</text>
  </g>
  
  <!-- 选择统计 -->
  <rect x="600" y="550" width="280" height="80" fill="#2C3E50" stroke="#7F8C8D" stroke-width="1" rx="4"/>
  <text x="608" y="570" fill="#27AE60" font-family="Arial" font-size="12" font-weight="bold">📊 Selection Summary</text>
  <text x="608" y="590" fill="#ECF0F1" font-family="Arial" font-size="11">Selected: 2 files / 3 files</text>
  <text x="608" y="605" fill="#ECF0F1" font-family="Arial" font-size="11">Total Size: 4.7 GB / 4.7 GB</text>
  <text x="608" y="620" fill="#ECF0F1" font-family="Arial" font-size="11">Est. Time: ~15 minutes (5MB/s)</text>
  
  <!-- 底部按钮 -->
  <g transform="translate(200, 650)">
    <rect x="0" y="0" width="80" height="32" fill="#3498DB" rx="4"/>
    <text x="40" y="20" fill="white" font-family="Arial" font-size="12" text-anchor="middle">Select All</text>
    
    <rect x="90" y="0" width="80" height="32" fill="#95A5A6" rx="4"/>
    <text x="130" y="20" fill="white" font-family="Arial" font-size="12" text-anchor="middle">Select None</text>
    
    <rect x="180" y="0" width="80" height="32" fill="#F39C12" rx="4"/>
    <text x="220" y="20" fill="white" font-family="Arial" font-size="12" text-anchor="middle">Invert</text>
    
    <rect x="280" y="0" width="80" height="32" fill="#E74C3C" rx="4"/>
    <text x="320" y="20" fill="white" font-family="Arial" font-size="12" text-anchor="middle">Cancel</text>
    
    <rect x="380" y="0" width="120" height="32" fill="#27AE60" rx="4"/>
    <text x="440" y="20" fill="white" font-family="Arial" font-size="12" text-anchor="middle">Start Download</text>
  </g>
</svg>